<svg preserveAspectRatio="none" width="100%" height="100%" overflow="visible" style="display: block;" viewBox="0 0 18.3333 18.3333" fill="none" xmlns="http://www.w3.org/2000/svg">
<path d="M6.66667 9.16667L8.33333 10.8333L12.0833 7.08333M14.0843 3.33209C14.2559 3.74711 14.5853 4.077 15 4.24923L16.4544 4.85165C16.8694 5.02357 17.1991 5.35333 17.3711 5.76838C17.543 6.18344 17.543 6.64979 17.3711 7.06484L16.7691 8.51817C16.5971 8.93341 16.5969 9.40023 16.7696 9.81527L17.3706 11.2682C17.4558 11.4737 17.4997 11.6941 17.4997 11.9166C17.4997 12.1392 17.4559 12.3595 17.3708 12.5651C17.2856 12.7707 17.1608 12.9575 17.0034 13.1149C16.846 13.2722 16.6592 13.397 16.4536 13.4821L15.0003 14.0841C14.5853 14.2557 14.2554 14.585 14.0832 14.9998L13.4808 16.4542C13.3089 16.8692 12.9791 17.199 12.5641 17.3709C12.1491 17.5428 11.6827 17.5428 11.2677 17.3709L9.8144 16.7689C9.39935 16.5974 8.93319 16.5978 8.5184 16.7699L7.06408 17.3715C6.64927 17.543 6.18334 17.5428 5.76864 17.3711C5.35394 17.1993 5.02438 16.8699 4.85234 16.4553L4.24977 15.0005C4.07817 14.5855 3.74879 14.2556 3.33404 14.0834L1.87972 13.4809C1.46486 13.3091 1.13521 12.9795 0.963235 12.5647C0.791257 12.1499 0.791023 11.6838 0.962587 11.2688L1.56455 9.81546C1.73604 9.40039 1.73569 8.93421 1.56358 8.5194L0.962477 7.06399C0.877252 6.85842 0.833369 6.63807 0.833333 6.41553C0.833298 6.19299 0.877111 5.97263 0.962269 5.76703C1.04743 5.56143 1.17226 5.37463 1.32964 5.21729C1.48702 5.05996 1.67385 4.93518 1.87947 4.85009L3.33275 4.2481C3.74739 4.07664 4.07707 3.74767 4.24942 3.33338L4.85182 1.87901C5.02373 1.46395 5.35348 1.1342 5.76852 0.962274C6.18356 0.790353 6.64989 0.790353 7.06493 0.962274L8.5182 1.56426C8.93325 1.73576 9.39942 1.73541 9.81421 1.56329L11.2691 0.963208C11.6841 0.791383 12.1504 0.791418 12.5653 0.963305C12.9803 1.13519 13.31 1.46486 13.4819 1.8798L14.0845 3.33461L14.0843 3.33209Z" stroke="#000000" stroke-width="1.66667" stroke-linecap="round" stroke-linejoin="round"/>
</svg>
